G04 #@! TF.GenerationSoftware,KiCad,Pcbnew,(5.1.4-0-10_14)*
G04 #@! TF.CreationDate,2019-10-03T18:56:30-07:00*
G04 #@! TF.ProjectId,teensy4_header_breakout,7465656e-7379-4345-9f68-65616465725f,rev?*
G04 #@! TF.SameCoordinates,Original*
G04 #@! TF.FileFunction,Profile,NP*
%FSLAX46Y46*%
G04 Gerber Fmt 4.6, Leading zero omitted, Abs format (unit mm)*
G04 Created by KiCad (PCBNEW (5.1.4-0-10_14)) date 2019-10-03 18:56:30*
%MOMM*%
%LPD*%
G04 APERTURE LIST*
%ADD10C,0.050000*%
G04 APERTURE END LIST*
D10*
X151638000Y-115570000D02*
X148590000Y-115570000D01*
X151638000Y-114300000D02*
X151638000Y-115570000D01*
X168910000Y-114300000D02*
X151638000Y-114300000D01*
X168910000Y-115570000D02*
X168910000Y-114300000D01*
X171450000Y-115570000D02*
X168910000Y-115570000D01*
X166370000Y-109220000D02*
X166370000Y-106680000D01*
X153670000Y-109220000D02*
X166370000Y-109220000D01*
X153670000Y-106680000D02*
X153670000Y-109220000D01*
X153670000Y-104775000D02*
X153670000Y-88392000D01*
X166370000Y-104775000D02*
X153670000Y-104775000D01*
X166370000Y-88392000D02*
X166370000Y-104775000D01*
X153670000Y-88392000D02*
X166370000Y-88392000D01*
X166370000Y-106680000D02*
X153670000Y-106680000D01*
X156845000Y-80010000D02*
X148590000Y-80010000D01*
X156845000Y-81915000D02*
X156845000Y-80010000D01*
X163195000Y-81915000D02*
X156845000Y-81915000D01*
X163195000Y-80010000D02*
X163195000Y-81915000D01*
X171450000Y-80010000D02*
X163195000Y-80010000D01*
X148590000Y-115570000D02*
X148590000Y-80010000D01*
X171450000Y-80010000D02*
X171450000Y-115570000D01*
M02*
