G04 #@! TF.GenerationSoftware,KiCad,Pcbnew,(5.1.4-0-10_14)*
G04 #@! TF.CreationDate,2019-10-03T18:56:30-07:00*
G04 #@! TF.ProjectId,teensy4_header_breakout,7465656e-7379-4345-9f68-65616465725f,rev?*
G04 #@! TF.SameCoordinates,Original*
G04 #@! TF.FileFunction,Legend,Bot*
G04 #@! TF.FilePolarity,Positive*
%FSLAX46Y46*%
G04 Gerber Fmt 4.6, Leading zero omitted, Abs format (unit mm)*
G04 Created by KiCad (PCBNEW (5.1.4-0-10_14)) date 2019-10-03 18:56:30*
%MOMM*%
%LPD*%
G04 APERTURE LIST*
%ADD10C,0.120000*%
%ADD11C,0.203200*%
%ADD12C,0.300000*%
G04 APERTURE END LIST*
D10*
X168935151Y-83820000D02*
G75*
G03X168935151Y-83820000I-1295151J0D01*
G01*
X156144828Y-109220000D02*
G75*
G03X156144828Y-109220000I-1204828J0D01*
G01*
X158565088Y-109220000D02*
G75*
G03X158565088Y-109220000I-1085088J0D01*
G01*
X161290000Y-109220000D02*
G75*
G03X161290000Y-109220000I-1270000J0D01*
G01*
X163764828Y-109220000D02*
G75*
G03X163764828Y-109220000I-1204828J0D01*
G01*
X166270882Y-109220000D02*
G75*
G03X166270882Y-109220000I-1170882J0D01*
G01*
X166243000Y-106680000D02*
G75*
G03X166243000Y-106680000I-1143000J0D01*
G01*
X163583907Y-106553000D02*
G75*
G03X163583907Y-106553000I-1023907J0D01*
G01*
X161163000Y-106680000D02*
G75*
G03X161163000Y-106680000I-1143000J0D01*
G01*
X158623000Y-106680000D02*
G75*
G03X158623000Y-106680000I-1143000J0D01*
G01*
X156083000Y-106680000D02*
G75*
G03X156083000Y-106680000I-1143000J0D01*
G01*
X159885923Y-81915000D02*
G75*
G03X159885923Y-81915000I-1135923J0D01*
G01*
X162375088Y-81915000D02*
G75*
G03X162375088Y-81915000I-1085088J0D01*
G01*
X166395151Y-83820000D02*
G75*
G03X166395151Y-83820000I-1295151J0D01*
G01*
D11*
X166112371Y-111083876D02*
X166051895Y-111023400D01*
X165930942Y-110962923D01*
X165628561Y-110962923D01*
X165507609Y-111023400D01*
X165447133Y-111083876D01*
X165386657Y-111204828D01*
X165386657Y-111325780D01*
X165447133Y-111507209D01*
X166172847Y-112232923D01*
X165386657Y-112232923D01*
X164600466Y-110962923D02*
X164479514Y-110962923D01*
X164358561Y-111023400D01*
X164298085Y-111083876D01*
X164237609Y-111204828D01*
X164177133Y-111446733D01*
X164177133Y-111749114D01*
X164237609Y-111991019D01*
X164298085Y-112111971D01*
X164358561Y-112172447D01*
X164479514Y-112232923D01*
X164600466Y-112232923D01*
X164721419Y-112172447D01*
X164781895Y-112111971D01*
X164842371Y-111991019D01*
X164902847Y-111749114D01*
X164902847Y-111446733D01*
X164842371Y-111204828D01*
X164781895Y-111083876D01*
X164721419Y-111023400D01*
X164600466Y-110962923D01*
X162967609Y-112232923D02*
X163693323Y-112232923D01*
X163330466Y-112232923D02*
X163330466Y-110962923D01*
X163451419Y-111144352D01*
X163572371Y-111265304D01*
X163693323Y-111325780D01*
X162362847Y-112232923D02*
X162120942Y-112232923D01*
X161999990Y-112172447D01*
X161939514Y-112111971D01*
X161818561Y-111930542D01*
X161758085Y-111688638D01*
X161758085Y-111204828D01*
X161818561Y-111083876D01*
X161879038Y-111023400D01*
X161999990Y-110962923D01*
X162241895Y-110962923D01*
X162362847Y-111023400D01*
X162423323Y-111083876D01*
X162483800Y-111204828D01*
X162483800Y-111507209D01*
X162423323Y-111628161D01*
X162362847Y-111688638D01*
X162241895Y-111749114D01*
X161999990Y-111749114D01*
X161879038Y-111688638D01*
X161818561Y-111628161D01*
X161758085Y-111507209D01*
X161213800Y-111749114D02*
X160246180Y-111749114D01*
X158976180Y-112232923D02*
X159701895Y-112232923D01*
X159339038Y-112232923D02*
X159339038Y-110962923D01*
X159459990Y-111144352D01*
X159580942Y-111265304D01*
X159701895Y-111325780D01*
X158189990Y-110962923D02*
X158069038Y-110962923D01*
X157948085Y-111023400D01*
X157887609Y-111083876D01*
X157827133Y-111204828D01*
X157766657Y-111446733D01*
X157766657Y-111749114D01*
X157827133Y-111991019D01*
X157887609Y-112111971D01*
X157948085Y-112172447D01*
X158069038Y-112232923D01*
X158189990Y-112232923D01*
X158310942Y-112172447D01*
X158371419Y-112111971D01*
X158431895Y-111991019D01*
X158492371Y-111749114D01*
X158492371Y-111446733D01*
X158431895Y-111204828D01*
X158371419Y-111083876D01*
X158310942Y-111023400D01*
X158189990Y-110962923D01*
X157222371Y-111749114D02*
X156254752Y-111749114D01*
X155408085Y-110962923D02*
X155287133Y-110962923D01*
X155166180Y-111023400D01*
X155105704Y-111083876D01*
X155045228Y-111204828D01*
X154984752Y-111446733D01*
X154984752Y-111749114D01*
X155045228Y-111991019D01*
X155105704Y-112111971D01*
X155166180Y-112172447D01*
X155287133Y-112232923D01*
X155408085Y-112232923D01*
X155529038Y-112172447D01*
X155589514Y-112111971D01*
X155649990Y-111991019D01*
X155710466Y-111749114D01*
X155710466Y-111446733D01*
X155649990Y-111204828D01*
X155589514Y-111083876D01*
X155529038Y-111023400D01*
X155408085Y-110962923D01*
X154561419Y-110962923D02*
X153775228Y-110962923D01*
X154198561Y-111446733D01*
X154017133Y-111446733D01*
X153896180Y-111507209D01*
X153835704Y-111567685D01*
X153775228Y-111688638D01*
X153775228Y-111991019D01*
X153835704Y-112111971D01*
X153896180Y-112172447D01*
X154017133Y-112232923D01*
X154379990Y-112232923D01*
X154500942Y-112172447D01*
X154561419Y-112111971D01*
D12*
X163438885Y-83518971D02*
X162867457Y-83518971D01*
X163224600Y-83018971D02*
X163224600Y-84304685D01*
X163153171Y-84447542D01*
X163010314Y-84518971D01*
X162867457Y-84518971D01*
X161796028Y-84447542D02*
X161938885Y-84518971D01*
X162224600Y-84518971D01*
X162367457Y-84447542D01*
X162438885Y-84304685D01*
X162438885Y-83733257D01*
X162367457Y-83590400D01*
X162224600Y-83518971D01*
X161938885Y-83518971D01*
X161796028Y-83590400D01*
X161724600Y-83733257D01*
X161724600Y-83876114D01*
X162438885Y-84018971D01*
X160510314Y-84447542D02*
X160653171Y-84518971D01*
X160938885Y-84518971D01*
X161081742Y-84447542D01*
X161153171Y-84304685D01*
X161153171Y-83733257D01*
X161081742Y-83590400D01*
X160938885Y-83518971D01*
X160653171Y-83518971D01*
X160510314Y-83590400D01*
X160438885Y-83733257D01*
X160438885Y-83876114D01*
X161153171Y-84018971D01*
X159796028Y-83518971D02*
X159796028Y-84518971D01*
X159796028Y-83661828D02*
X159724600Y-83590400D01*
X159581742Y-83518971D01*
X159367457Y-83518971D01*
X159224600Y-83590400D01*
X159153171Y-83733257D01*
X159153171Y-84518971D01*
X158510314Y-84447542D02*
X158367457Y-84518971D01*
X158081742Y-84518971D01*
X157938885Y-84447542D01*
X157867457Y-84304685D01*
X157867457Y-84233257D01*
X157938885Y-84090400D01*
X158081742Y-84018971D01*
X158296028Y-84018971D01*
X158438885Y-83947542D01*
X158510314Y-83804685D01*
X158510314Y-83733257D01*
X158438885Y-83590400D01*
X158296028Y-83518971D01*
X158081742Y-83518971D01*
X157938885Y-83590400D01*
X157367457Y-83518971D02*
X157010314Y-84518971D01*
X156653171Y-83518971D02*
X157010314Y-84518971D01*
X157153171Y-84876114D01*
X157224600Y-84947542D01*
X157367457Y-85018971D01*
X154296028Y-83518971D02*
X154296028Y-84518971D01*
X154653171Y-82947542D02*
X155010314Y-84018971D01*
X154081742Y-84018971D01*
X163224600Y-87068971D02*
X163224600Y-85568971D01*
X163224600Y-86140400D02*
X163081742Y-86068971D01*
X162796028Y-86068971D01*
X162653171Y-86140400D01*
X162581742Y-86211828D01*
X162510314Y-86354685D01*
X162510314Y-86783257D01*
X162581742Y-86926114D01*
X162653171Y-86997542D01*
X162796028Y-87068971D01*
X163081742Y-87068971D01*
X163224600Y-86997542D01*
X161867457Y-87068971D02*
X161867457Y-86068971D01*
X161867457Y-86354685D02*
X161796028Y-86211828D01*
X161724600Y-86140400D01*
X161581742Y-86068971D01*
X161438885Y-86068971D01*
X160367457Y-86997542D02*
X160510314Y-87068971D01*
X160796028Y-87068971D01*
X160938885Y-86997542D01*
X161010314Y-86854685D01*
X161010314Y-86283257D01*
X160938885Y-86140400D01*
X160796028Y-86068971D01*
X160510314Y-86068971D01*
X160367457Y-86140400D01*
X160296028Y-86283257D01*
X160296028Y-86426114D01*
X161010314Y-86568971D01*
X159010314Y-87068971D02*
X159010314Y-86283257D01*
X159081742Y-86140400D01*
X159224600Y-86068971D01*
X159510314Y-86068971D01*
X159653171Y-86140400D01*
X159010314Y-86997542D02*
X159153171Y-87068971D01*
X159510314Y-87068971D01*
X159653171Y-86997542D01*
X159724600Y-86854685D01*
X159724600Y-86711828D01*
X159653171Y-86568971D01*
X159510314Y-86497542D01*
X159153171Y-86497542D01*
X159010314Y-86426114D01*
X158296028Y-87068971D02*
X158296028Y-85568971D01*
X158153171Y-86497542D02*
X157724600Y-87068971D01*
X157724600Y-86068971D02*
X158296028Y-86640400D01*
X156867457Y-87068971D02*
X157010314Y-86997542D01*
X157081742Y-86926114D01*
X157153171Y-86783257D01*
X157153171Y-86354685D01*
X157081742Y-86211828D01*
X157010314Y-86140400D01*
X156867457Y-86068971D01*
X156653171Y-86068971D01*
X156510314Y-86140400D01*
X156438885Y-86211828D01*
X156367457Y-86354685D01*
X156367457Y-86783257D01*
X156438885Y-86926114D01*
X156510314Y-86997542D01*
X156653171Y-87068971D01*
X156867457Y-87068971D01*
X155081742Y-86068971D02*
X155081742Y-87068971D01*
X155724600Y-86068971D02*
X155724600Y-86854685D01*
X155653171Y-86997542D01*
X155510314Y-87068971D01*
X155296028Y-87068971D01*
X155153171Y-86997542D01*
X155081742Y-86926114D01*
X154581742Y-86068971D02*
X154010314Y-86068971D01*
X154367457Y-85568971D02*
X154367457Y-86854685D01*
X154296028Y-86997542D01*
X154153171Y-87068971D01*
X154010314Y-87068971D01*
M02*
