M48
; DRILL file {KiCad (5.1.4-0-10_14)} date Thursday, October 03, 2019 at 06:56:42 PM
; FORMAT={3:3/ absolute / metric / suppress leading zeros}
; #@! TF.CreationDate,2019-10-03T18:56:42-07:00
; #@! TF.GenerationSoftware,Kicad,Pcbnew,(5.1.4-0-10_14)
FMAT,2
METRIC,TZ
T1C0.500
T2C1.000
T3C1.100
%
G90
G05
T1
X156520Y-88418
X157520Y-88418
X158520Y-88418
X159520Y-88418
X160520Y-88418
X161520Y-88418
X162520Y-88418
X163520Y-88418
T2
X154940Y-106680
X154940Y-109220
X157480Y-106680
X157480Y-109220
X158750Y-81915
X160020Y-106680
X160020Y-109220
X161290Y-81915
X162560Y-106680
X162560Y-109220
X165100Y-106680
X165100Y-109220
X149860Y-81280
X170180Y-81280
X170180Y-83820
X170180Y-86360
X170180Y-88900
X170180Y-91440
X170180Y-93980
X170180Y-96520
X149860Y-83820
X149860Y-86360
X149860Y-88900
X149860Y-91440
X149860Y-93980
X149860Y-96520
X149860Y-99060
X149860Y-101600
X149860Y-104140
X149860Y-106680
X149860Y-109220
X149860Y-111760
X149860Y-114300
X170180Y-99060
X170180Y-101600
X170180Y-104140
X170180Y-106680
X170180Y-109220
X170180Y-111760
X170180Y-114300
T3
X152400Y-81280
X152400Y-83820
X152400Y-86360
X152400Y-88900
X152400Y-91440
X152400Y-93980
X152400Y-96520
X152400Y-99060
X152400Y-101600
X152400Y-104140
X152400Y-106680
X152400Y-109220
X152400Y-111760
X152400Y-114300
X154940Y-114300
X157480Y-114300
X160020Y-114300
X162560Y-114300
X165100Y-83820
X165100Y-114300
X167640Y-81280
X167640Y-83820
X167640Y-86360
X167640Y-88900
X167640Y-91440
X167640Y-93980
X167640Y-96520
X167640Y-99060
X167640Y-101600
X167640Y-104140
X167640Y-106680
X167640Y-109220
X167640Y-111760
X167640Y-114300
T0
M30
