G04 #@! TF.GenerationSoftware,KiCad,Pcbnew,(5.1.4-0-10_14)*
G04 #@! TF.CreationDate,2019-10-03T18:56:30-07:00*
G04 #@! TF.ProjectId,teensy4_header_breakout,7465656e-7379-4345-9f68-65616465725f,rev?*
G04 #@! TF.SameCoordinates,Original*
G04 #@! TF.FileFunction,Copper,L2,Bot*
G04 #@! TF.FilePolarity,Positive*
%FSLAX46Y46*%
G04 Gerber Fmt 4.6, Leading zero omitted, Abs format (unit mm)*
G04 Created by KiCad (PCBNEW (5.1.4-0-10_14)) date 2019-10-03 18:56:30*
%MOMM*%
%LPD*%
G04 APERTURE LIST*
%ADD10C,1.404000*%
%ADD11C,1.304000*%
%ADD12C,0.804000*%
%ADD13O,1.700000X1.700000*%
%ADD14R,1.700000X1.700000*%
%ADD15C,0.152400*%
%ADD16C,0.457200*%
G04 APERTURE END LIST*
D10*
X152400000Y-111760000D03*
X167640000Y-81280000D03*
X165100000Y-83820000D03*
X167640000Y-83820000D03*
X167640000Y-86360000D03*
X167640000Y-88900000D03*
X167640000Y-91440000D03*
X167640000Y-93980000D03*
X167640000Y-96520000D03*
X167640000Y-99060000D03*
X167640000Y-101600000D03*
X167640000Y-104140000D03*
X167640000Y-106680000D03*
X167640000Y-109220000D03*
X167640000Y-111760000D03*
X167640000Y-114300000D03*
X165100000Y-114300000D03*
X162560000Y-114300000D03*
X160020000Y-114300000D03*
X157480000Y-114300000D03*
X154940000Y-114300000D03*
X152400000Y-114300000D03*
X152400000Y-109220000D03*
X152400000Y-106680000D03*
X152400000Y-104140000D03*
X152400000Y-101600000D03*
X152400000Y-99060000D03*
X152400000Y-96520000D03*
X152400000Y-93980000D03*
X152400000Y-91440000D03*
X152400000Y-88900000D03*
X152400000Y-86360000D03*
D11*
X158750000Y-81915000D03*
X161290000Y-81915000D03*
D12*
X156520000Y-88418400D03*
X157520000Y-88418400D03*
X158520000Y-88418400D03*
X159520000Y-88418400D03*
X160520000Y-88418400D03*
X161520000Y-88418400D03*
X162520000Y-88418400D03*
X163520000Y-88418400D03*
D11*
X154940000Y-106680000D03*
X154940000Y-109220000D03*
X157480000Y-106680000D03*
X157480000Y-109220000D03*
X160020000Y-106680000D03*
X160020000Y-109220000D03*
X162560000Y-106680000D03*
X162560000Y-109220000D03*
X165100000Y-106680000D03*
X165100000Y-109220000D03*
D10*
X152400000Y-83820000D03*
X152400000Y-81280000D03*
D13*
X170180000Y-81280000D03*
X170180000Y-83820000D03*
X170180000Y-86360000D03*
X170180000Y-88900000D03*
X170180000Y-91440000D03*
X170180000Y-93980000D03*
X170180000Y-96520000D03*
X170180000Y-99060000D03*
X170180000Y-101600000D03*
X170180000Y-104140000D03*
X170180000Y-106680000D03*
X170180000Y-109220000D03*
X170180000Y-111760000D03*
D14*
X170180000Y-114300000D03*
D13*
X149860000Y-114300000D03*
X149860000Y-111760000D03*
X149860000Y-109220000D03*
X149860000Y-106680000D03*
X149860000Y-104140000D03*
X149860000Y-101600000D03*
X149860000Y-99060000D03*
X149860000Y-96520000D03*
X149860000Y-93980000D03*
X149860000Y-91440000D03*
X149860000Y-88900000D03*
X149860000Y-86360000D03*
X149860000Y-83820000D03*
D14*
X149860000Y-81280000D03*
D15*
X156766188Y-87664588D02*
X157239990Y-88138390D01*
X149860000Y-96520000D02*
X151164588Y-95215412D01*
X151164588Y-88327055D02*
X151827055Y-87664588D01*
X151164588Y-95215412D02*
X151164588Y-88327055D01*
X151827055Y-87664588D02*
X156766188Y-87664588D01*
X156070999Y-87969399D02*
X156239990Y-88138390D01*
X151469399Y-97450601D02*
X151469399Y-88453311D01*
X151953311Y-87969399D02*
X156070999Y-87969399D01*
X149860000Y-99060000D02*
X151469399Y-97450601D01*
X151469399Y-88453311D02*
X151953311Y-87969399D01*
D16*
X165801999Y-83118001D02*
X165100000Y-83820000D01*
X166556999Y-82363001D02*
X165801999Y-83118001D01*
X169096999Y-82363001D02*
X166556999Y-82363001D01*
X170180000Y-81280000D02*
X169096999Y-82363001D01*
D15*
X161594809Y-110794809D02*
X160273610Y-109473610D01*
X170180000Y-101600000D02*
X168875412Y-102904588D01*
X168875412Y-102904588D02*
X168875412Y-109792945D01*
X168875412Y-109792945D02*
X167873548Y-110794809D01*
X167873548Y-110794809D02*
X161594809Y-110794809D01*
X163490601Y-110150601D02*
X162813610Y-109473610D01*
X170180000Y-99060000D02*
X168570601Y-100669399D01*
X168086689Y-110150601D02*
X163490601Y-110150601D01*
X168570601Y-109666689D02*
X168086689Y-110150601D01*
X168570601Y-100669399D02*
X168570601Y-109666689D01*
X163490601Y-113369399D02*
X162813610Y-114046390D01*
X168570601Y-113369399D02*
X163490601Y-113369399D01*
X170180000Y-111760000D02*
X168570601Y-113369399D01*
D16*
X168159841Y-112843001D02*
X161476999Y-112843001D01*
X168948999Y-112053843D02*
X168159841Y-112843001D01*
X168948999Y-110451001D02*
X168948999Y-112053843D01*
X161476999Y-112843001D02*
X160426010Y-113893990D01*
X170180000Y-109220000D02*
X168948999Y-110451001D01*
M02*
